<?xml version="1.0" encoding="UTF-8" standalone="no"?>
<svg width="1024px" height="512px" viewBox="0 0 1024 512" version="1.1" xmlns="http://www.w3.org/2000/svg" xmlns:xlink="http://www.w3.org/1999/xlink" xmlns:sketch="http://www.bohemiancoding.com/sketch/ns">
    <!-- Generator: Sketch 3.2.2 (9983) - http://www.bohemiancoding.com/sketch -->
    <title>1024x512</title>
    <desc>Created with Sketch.</desc>
    <defs></defs>
    <g id="Page-1" stroke="none" stroke-width="1" fill="none" fill-rule="evenodd" sketch:type="MSPage">
        <g id="1024x512" sketch:type="MSArtboardGroup">
            <rect id="Rectangle-28" fill="#B3DFDB" sketch:type="MSShapeGroup" x="0" y="0" width="1024" height="512"></rect>
            <g id="Background" sketch:type="MSLayerGroup" transform="translate(382.181769, 120.311464)">
                <g id="Group" transform="translate(0.518243, 85.000000)" sketch:type="MSShapeGroup">
                    <rect id="Rectangle-40" fill="#0E786B" x="0" y="172.636461" width="258.635052" height="42.9394102"></rect>
                    <rect id="Rectangle-41" fill="#11887B" x="0" y="129.697051" width="258.635052" height="42.9394102"></rect>
                    <rect id="Rectangle-42" fill="#149487" x="0" y="86.7576408" width="258.635052" height="42.9394102"></rect>
                    <rect id="Rectangle-43" fill="#2FA69A" x="0" y="43.8182306" width="258.635052" height="42.9394102"></rect>
                    <rect id="Rectangle-44" fill="#52B6AC" x="0" y="0.87882042" width="258.635052" height="42.9394102"></rect>
                </g>
                <path d="M1,0 L258.636461,0 L258.636461,42.9394102 L1,42.9394102 L1,0 Z M1,42.9394102 L258.636461,42.9394102 L258.636461,85.8788204 L1,85.8788204 L1,42.9394102 Z" id="Rectangle-39" fill="#B3DFDB" sketch:type="MSShapeGroup"></path>
            </g>
            <g id="Group" sketch:type="MSLayerGroup" transform="translate(365.600006, 74.366295)">
                <g id="Bust" transform="translate(59.256386, 85.020032)" sketch:type="MSShapeGroup">
                    <path d="M162.881005,172.616429 L110.213644,172.616429 L110.213644,172.616429 C110.214585,172.723175 110.215056,172.830005 110.215056,172.936919 C110.215056,198.956158 82.305556,220.04892 47.8774424,220.04892 L47.8774424,261.071614 L225.217207,261.071614 L225.217207,220.04892 C190.789093,220.04892 162.879592,198.956158 162.879592,172.936919 C162.879592,172.830005 162.880064,172.723175 162.881005,172.616429 Z" id="chest" fill="#FFEBCB"></path>
                    <path d="M87.9209714,209.044926 C77.0895014,215.913034 63.1225593,220.04892 47.8774424,220.04892 L47.8774424,261.071614 L225.217207,261.071614 L225.217207,220.04892 C209.97209,220.04892 196.005148,215.913034 185.173678,209.044926 C175.5917,226.77504 157.405499,238.743121 136.547324,238.743121 C115.68915,238.743121 97.5029487,226.77504 87.9209714,209.044926 Z" id="neck" fill="#FFFFFF"></path>
                    <path d="M109.685231,178.589558 C109.201242,181.694586 108.31771,184.707193 107.074553,187.597212 L107.074553,187.597212 C114.740283,194.412235 124.328142,198.462008 134.731146,198.462008 C146.298231,198.462008 156.857539,193.455199 164.887335,185.207366 C163.836455,182.233721 163.160872,179.144231 162.901279,175.969649 C155.152246,183.064047 145.36778,187.297761 134.731146,187.297761 C125.47792,187.297761 116.86961,184.09371 109.685231,178.589558 L109.685231,178.589558 Z" id="face-shadow" fill="#E1D4BB"></path>
                    <path d="M118.783117,60.9739625 L123.585239,173.475217 L75.573362,173.475217 L80.3754841,60.9739625 L118.783117,60.9739625 Z M199.509208,65.2679035 L204.31133,177.769158 L156.299453,177.769158 L161.101575,65.2679035 L199.509208,65.2679035 Z" id="hair" fill="#424242"></path>
                    <path d="M180.345523,98.8606118 L180.345523,60.9739625 L89.3139732,60.9739625 L89.3154461,133.97096 C89.3144648,134.113957 89.3139732,134.257089 89.3139732,134.400354 C89.3139732,163.569535 109.69208,187.215829 134.829748,187.215829 C159.967416,187.215829 180.345523,163.569535 180.345523,134.400354 C180.345523,134.257089 180.345031,134.113957 180.34405,133.97096 L180.345523,133.97096 L180.345523,127.859474 C180.908869,127.925495 181.48202,127.959442 182.063099,127.959442 C190.126125,127.959442 196.662499,121.423069 196.662499,113.360043 C196.662499,105.297017 190.126125,98.7606435 182.063099,98.7606435 C181.48202,98.7606435 180.908869,98.7945913 180.345523,98.8606118 Z" id="face" fill="#FFEBCB"></path>
                    <path d="M180.345523,97.9018553 L180.345523,98.8106277 L180.345523,98.8106277 C180.908869,98.7446071 181.48202,98.7106593 182.063099,98.7106593 C182.644179,98.7106593 183.217329,98.7446071 183.780676,98.8106277 L183.780676,117.604 L180.345523,117.604 L180.345523,97.9018553 Z" id="Oval-4" fill="#DFD2B9"></path>
                    <path d="M83.2774754,57.5388097 C92.6374029,23.8324224 115.142645,0.0819324752 141.417957,0.0819324752 C167.69327,0.0819324752 190.198512,23.8324224 199.558439,57.5388097 L202.823776,57.5388097 C205.58684,57.5388097 207.826745,59.7864337 207.826745,62.5384884 L207.826745,70.5736833 C207.826745,73.3349296 205.586732,75.573362 202.823776,75.573362 L80.5763318,75.573362 C77.8132679,75.573362 75.573362,73.3257379 75.573362,70.5736833 L75.573362,62.5384884 C75.573362,59.7772421 77.8133756,57.5388097 80.5763318,57.5388097 L83.2774754,57.5388097 Z" id="beanie" fill="#202020"></path>
                    <circle id="Oval-9" stroke="#FEC02E" fill="#263237" cx="184.21007" cy="123.236107" r="1.28818231"></circle>
                    <path d="M107.348526,115.936408 C109.720004,115.936408 111.642467,114.013945 111.642467,111.642467 C111.642467,109.270988 109.720004,107.348526 107.348526,107.348526 C104.977047,107.348526 103.054585,109.270988 103.054585,111.642467 C103.054585,114.013945 104.977047,115.936408 107.348526,115.936408 Z M140.841265,115.936408 C143.212744,115.936408 145.135207,114.013945 145.135207,111.642467 C145.135207,109.270988 143.212744,107.348526 140.841265,107.348526 C138.469787,107.348526 136.547324,109.270988 136.547324,111.642467 C136.547324,114.013945 138.469787,115.936408 140.841265,115.936408 Z" id="eyes" fill="#4A4A4A"></path>
                    <g id="phone-+-Oval-29" transform="translate(15.458188, 187.215829)">
                        <rect id="phone" fill="#B0BEC5" x="0" y="0" width="45.5157748" height="79.0085148" rx="5"></rect>
                        <circle id="camera" stroke="#F5F5F5" fill="#414141" cx="9.44667025" cy="11.1642467" r="2.57636461"></circle>
                    </g>
                    <circle id="hand" fill="#FFEBCB" cx="17.1757641" cy="248.189791" r="17.1757641"></circle>
                </g>
                <g id="Cloud" transform="translate(207.826745, 61.832751)">
                    <g id="top"></g>
                    <g id="Rectangle-21-+-Oval-20-+-Oval-24" transform="translate(16.761890, 7.729094)"></g>
                    <path d="M9.62256663,23.1842464 C9.57108379,23.1862635 9.51934323,23.1872815 9.46736394,23.1872815 C7.324462,23.1872815 5.58729675,21.4570649 5.58729675,19.3227346 C5.58729675,17.1884043 7.324462,15.4581877 9.46736394,15.4581877 C9.51934323,15.4581877 9.57108379,15.4592057 9.62256663,15.4612228 L9.62256663,15.4581877 L55.2521568,15.4581877 L55.2521568,15.4612228 C57.323109,15.5423634 58.9770213,17.2401756 58.9770213,19.3227346 C58.9770213,21.4052936 57.323109,23.1031058 55.2521568,23.1842464 L55.2521568,23.1872815 L9.62256663,23.1872815 L9.62256663,23.1842464 Z M47.4920224,15.4551525 L47.4920224,15.4581877 L16.7618903,15.4581877 L16.7618903,15.4551525 L16.7618903,15.4551525 C16.8133731,15.4571697 16.8651136,15.4581877 16.9170929,15.4581877 C19.0599949,15.4581877 20.7971601,13.7279711 20.7971601,11.5936408 C20.7971601,9.45931043 19.0599949,7.72909384 16.9170929,7.72909384 C16.8651136,7.72909384 16.8133731,7.73011186 16.7618903,7.73212897 L16.7618903,7.72909384 L47.4920224,7.72909384 L47.4920224,7.73212897 C45.4210702,7.81326959 43.7671579,9.5110818 43.7671579,11.5936408 C43.7671579,13.6761997 45.4210702,15.3740119 47.4920224,15.4551525 L47.4920224,15.4551525 Z M3.7248645,0.00303513562 C1.65391228,0.0841757507 0,1.78198796 0,3.86454692 C0,5.94710587 1.65391228,7.64491809 3.7248645,7.7260587 L3.7248645,7.72909384 L73.2556685,7.72909384 L73.2556685,7.7260587 C73.3071513,7.72807582 73.3588919,7.72909384 73.4108712,7.72909384 C75.5537731,7.72909384 77.2909384,5.99887725 77.2909384,3.86454692 C77.2909384,1.73021659 75.5537731,0 73.4108712,0 C73.3588919,0 73.3071513,0.00101802058 73.2556685,0.00303513562 L73.2556685,0 L3.7248645,0 L3.7248645,0.00303513562 L3.7248645,0.00303513562 Z" id="Oval-19" fill="#FFFFFF" sketch:type="MSShapeGroup"></path>
                    <g id="Oval-19-+-Rectangle-21" transform="translate(5.587297, 7.458188)"></g>
                </g>
                <g id="Cloud-2" transform="translate(32.633952, 96.613673)" fill="#FFFFFF" sketch:type="MSShapeGroup">
                    <ellipse id="Oval-19" cx="3.88006719" cy="3.86454692" rx="3.88006719" ry="3.86454692"></ellipse>
                    <ellipse id="Oval-20" cx="30.0575871" cy="3.86454692" rx="3.88006719" ry="3.86454692"></ellipse>
                    <rect id="Rectangle-21" x="4.03526988" y="0" width="26.0223173" height="7.72909384"></rect>
                </g>
                <g id="Cloud-3" transform="translate(56.680021, 77.290938)" fill="#FFFFFF" sketch:type="MSShapeGroup">
                    <ellipse id="Oval-19" cx="3.88006719" cy="3.86454692" rx="3.88006719" ry="3.86454692"></ellipse>
                    <ellipse id="Oval-20" cx="18.8933405" cy="3.86454692" rx="3.88006719" ry="3.86454692"></ellipse>
                    <rect id="Rectangle-21" x="4.03526988" y="0" width="14.8580706" height="7.72909384"></rect>
                </g>
                <polygon id="Triangle-5" stroke="#B0BEC5" sketch:type="MSShapeGroup" points="146.423389 4.29394102 172.187035 38.6454692 120.659743 38.6454692 "></polygon>
                <g id="Frame" transform="translate(0.000000, 28.340011)" sketch:type="MSShapeGroup">
                    <path d="M17.1680589,317.751636 L17.1680597,334.9274 L0,334.9274 L17.1680589,317.751636 Z M291.987989,0 L291.98799,17.175764 L274.819931,17.1757641 L291.987989,0 Z M17.1757641,317.751636 L274.812225,317.751636 L274.812225,334.9274 L17.1757641,334.9274 L17.1757641,317.751636 Z M274.812225,17.1757641 L291.987989,17.1757641 L291.987989,334.9274 L274.812225,334.9274 L274.812225,17.1757641 Z" id="Triangle-4" fill="#202020" transform="translate(145.993995, 167.463700) scale(-1, 1) translate(-145.993995, -167.463700) "></path>
                    <path d="M17.1680589,317.751636 L17.1680597,334.9274 L0,334.9274 L17.1680589,317.751636 Z M291.987989,0 L291.98799,17.175764 L274.819931,17.1757641 L291.987989,0 Z M17.1757641,317.751636 L274.812225,317.751636 L274.812225,334.9274 L17.1757641,334.9274 L17.1757641,317.751636 Z M274.812225,17.1757641 L291.987989,17.1757641 L291.987989,334.9274 L274.812225,334.9274 L274.812225,17.1757641 Z" id="Triangle-5" fill="#424242" transform="translate(145.993995, 167.463700) scale(1, -1) translate(-145.993995, -167.463700) "></path>
                </g>
                <ellipse id="Oval-31" fill="#FEC02E" sketch:type="MSShapeGroup" cx="146.423389" cy="5.58212333" rx="5.58212333" ry="5.58212333"></ellipse>
            </g>
        </g>
    </g>
</svg>